<svg version="1.0" xmlns="http://www.w3.org/2000/svg" width="400" height="400" viewBox="0 0 300 300"><path d="M250.1 87.4c-8.7 4.8-5 18.6 4.9 18.6 5.1 0 10-4.9 10-9.9 0-7.5-8.3-12.4-14.9-8.7zm7.9 6.1c2.6 3.2-1.3 8.1-4.7 5.9-3.5-2.2-2.3-7.4 1.7-7.4 1 0 2.3.7 3 1.5zm21.6-4.8c-1.3 1.3-.5 4.8 1.6 7l2.1 2.3-2.1 2.3c-2.1 2.2-2.9 5.7-1.6 7 .4.3 2.4-.8 4.5-2.5l3.9-3.2 3.3 3.2c1.8 1.8 3.6 2.9 4 2.6 1.4-1.4.7-4.8-1.5-7.1l-2.1-2.3 2.1-2.3c2.2-2.3 2.9-5.7 1.5-7.1-.4-.3-2.1.8-3.9 2.5l-3.3 3.2-3.9-3.1c-2.2-1.7-4.2-2.9-4.6-2.5zM52.4 91.5c-.4.9-.2 2.1.4 2.7 1.5 1.5 4.4.1 4-1.9-.4-2.3-3.6-2.9-4.4-.8zm105 3c-.4.9-.2 2.1.4 2.7 1.5 1.5 4.4.1 4-1.9-.4-2.3-3.6-2.9-4.4-.8zm14 0c-.4.9-.2 2.1.4 2.7 1.5 1.5 4.4.1 4-1.9-.4-2.3-3.6-2.9-4.4-.8zm46 3c-.4.9-.2 2.1.4 2.7 1.5 1.5 4.4.1 4-1.9-.4-2.3-3.6-2.9-4.4-.8zm-103 1c-.4.9-.2 2.1.4 2.7 1.5 1.5 4.4.1 4-1.9-.4-2.3-3.6-2.9-4.4-.8zm29 0c-.4.9-.2 2.1.4 2.7 1.5 1.5 4.4.1 4-1.9-.4-2.3-3.6-2.9-4.4-.8zm42 0c-.4.9-.2 2.1.4 2.7 1.5 1.5 4.4.1 4-1.9-.4-2.3-3.6-2.9-4.4-.8zm-175 3c-.4.9-.2 2.1.4 2.7 1.5 1.5 4.4.1 4-1.9-.4-2.3-3.6-2.9-4.4-.8zm120 2c-.4.9-.2 2.1.4 2.7 1.5 1.5 4.4.1 4-1.9-.4-2.3-3.6-2.9-4.4-.8zm67 0c-.4.9-.2 2.1.4 2.7 1.5 1.5 4.4.1 4-1.9-.4-2.3-3.6-2.9-4.4-.8zm-41.1 2.9c-9.6 3.1-17.7 10.9-21.4 20.5-2.6 6.8-3.7 24-2 32 2.6 12 10 21.9 19.9 26.4 3.8 1.8 6.6 2.2 14.2 2.2 8.8 0 10.1-.3 16.2-3.3 3.7-1.8 7.8-4.6 9.2-6.3 3.1-3.6 7.1-10.5 8.1-13.7.6-2.2.5-2.2-9.4-2.2h-10l-2.2 4c-2.8 4.9-7.7 7.4-13.1 6.7-5.3-.7-8.3-2.9-11-8-2.1-3.8-2.3-5.6-2.3-18.2 0-12 .3-14.6 2-17.9 2.5-5 6.1-7.6 11.2-8.3 7.7-1 13.4 3.6 15.6 12.7l1.2 5h19.8l-.7-4.1c-.9-5.6-5.9-15.1-10.1-19.4-6.1-6-12.7-8.7-22.5-9.1-5.4-.3-10 .1-12.7 1zm-92.3 16V138h19v-17h6.8c8.8 0 13.3 2.2 14.9 7.2 1.4 4.4.3 9.6-2.8 12.4-1.6 1.4-4 2-10 2.3l-7.9.3V157h9l7 14 7 14h10.1c5.5 0 9.9-.3 9.7-.8-.2-.4-3.8-7.6-8.1-16.1-6.6-12.9-7.6-15.6-6.3-16.3 7.7-4.3 11.6-11.2 11.6-20.8 0-7.8-2.3-13.4-7-17.3-6.6-5.6-8.8-6.1-31.7-6.5l-21.3-.4v15.6zm202.9-14.5c-4.8 1.5-6.9 3.2-8.9 7.1-2.7 5.4-2.7 15.3 0 19.7l2 3.3h21.6l1.8-3c2.5-4.3 2.5-14.4 0-19.5-2.9-5.9-10.5-9.4-16.5-7.6zm7.6 7.5c2.4 1.7 3.3 12.2 1.5 16.6-2.2 5.3-8 5.2-10.7-.1-2.4-4.6-1.1-15.1 2-17.1 1.9-1.2 5.1-.9 7.2.6zM23 123v15h8v-8h5c5.6 0 10.4-2 12-4.9 1.5-2.9 1.2-9.3-.6-11.9-2.7-3.9-6.7-5.2-15.9-5.2H23v15zm16.4-7.4c1.9 1.8 2.1 5.5.4 7.2-.7.7-2.9 1.2-5 1.2H31v-10h3.4c1.9 0 4.2.7 5 1.6zM210 123v15h8.2l-.7-9.3c-.4-5-.4-8.9-.1-8.6.4.3 1.9 4.4 3.5 9l2.8 8.4h8.6l3.3-9.5 3.4-9.5-.6 9.7-.6 9.8h8.2v-30h-10.6l-3.4 11c-1.8 6-3.6 11-4 11-.4 0-2.2-5-4.1-11l-3.4-11H210v15zM53.4 134.5c-.4.9-.2 2.1.4 2.7 1.5 1.5 4.4.1 4-1.9-.4-2.3-3.6-2.9-4.4-.8zm-40 16c-.4.9-.2 2.1.4 2.7 1.5 1.5 4.4.1 4-1.9-.4-2.3-3.6-2.9-4.4-.8zm18.5 1.4c-5 1.6-7.1 3.3-9 7.4-3.9 8.7-1.4 21.2 5 25 3.8 2.2 12.9 2.2 17.6 0l3.5-1.7V168h-6.5c-6.3 0-6.5.1-6.5 2.5 0 2 .5 2.5 2.6 2.5 2.3 0 2.5.3 2.2 3.2-.3 3-.6 3.3-3.9 3.6-5.5.5-7.4-2.3-7.4-10.8 0-5.3.4-7.2 1.9-8.9 2.6-2.9 7.7-2.5 9.1.6.8 1.8 1.8 2.3 4.7 2.3 3.1 0 3.8-.4 3.8-1.9 0-2.3-4.4-7.8-6.8-8.5-4.2-1.1-7.9-1.4-10.3-.7zM210 165c0 7.1.5 14 1.1 15.3 1.7 3.7 6 5.7 12.4 5.7 5.1 0 6-.3 9.1-3.4l3.4-3.4V152h-8v12.8c0 13.8-.5 15.2-5 15.2s-5-1.4-5-15.2V152h-8v13zm37 4v17h8v-12h5c5.6 0 10.4-2 12-4.9 1.5-2.9 1.2-9.3-.6-11.9-2.7-3.9-6.7-5.2-15.9-5.2H247v17zm16.4-9.4c1.9 1.8 2.1 5.5.4 7.2-.7.7-2.9 1.2-5 1.2H255v-10h3.4c1.9 0 4.2.7 5 1.6zm28-1.1c-.4.9-.2 2.1.4 2.7 1.5 1.5 4.4.1 4-1.9-.4-2.3-3.6-2.9-4.4-.8zM64 173.5V185h19v-23H64v11.5zm212 .5v6h-13v11h13v12h10.9l.3-5.8.3-5.7 6.3-.3 6.2-.3v-10.8l-6.2-.3-6.3-.3-.3-5.8-.3-5.7H276v6zm-73.6 7.5c-.4.9-.2 2.1.4 2.7 1.5 1.5 4.4.1 4-1.9-.4-2.3-3.6-2.9-4.4-.8zm-164 10c-.4.9-.2 2.1.4 2.7 1.5 1.5 4.4.1 4-1.9-.4-2.3-3.6-2.9-4.4-.8zm90 2c-.4.9-.2 2.1.4 2.7 1.5 1.5 4.4.1 4-1.9-.4-2.3-3.6-2.9-4.4-.8zm29 3c-.4.9-.2 2.1.4 2.7 1.5 1.5 4.4.1 4-1.9-.4-2.3-3.6-2.9-4.4-.8zm-63 3c-.4.9-.2 2.1.4 2.7 1.5 1.5 4.4.1 4-1.9-.4-2.3-3.6-2.9-4.4-.8zm146 0c-.4.9-.2 2.1.4 2.7 1.5 1.5 4.4.1 4-1.9-.4-2.3-3.6-2.9-4.4-.8zm-61 5c-.4.9-.2 2.1.4 2.7 1.5 1.5 4.4.1 4-1.9-.4-2.3-3.6-2.9-4.4-.8z"/></svg>