<svg width="38" height="38" fill="none" xmlns="http://www.w3.org/2000/svg"><g clip-path="url(#clip0)" fill="#fff"><path d="M5.796 9.014a3.634 3.634 0 00-3.625 3.621v18.906H1.096c-.298 0-.54.204-.54.501v2.365A3.6 3.6 0 004.171 38h29.676a3.6 3.6 0 003.615-3.593v-2.365c0-.297-.242-.5-.54-.5h-1.075V12.634a3.634 3.634 0 00-3.625-3.621h-8.984V6.938h3.293a.54.54 0 00.551-.527V4.34c.337-.1.645-.28.897-.525a2.041 2.041 0 10-2.883 0c.245.26.562.443.91.525v1.52h-3.3a.553.553 0 00-.545.55v2.603h-2.614v-5.01a2.038 2.038 0 10-1.076 0v5.01h-2.768V6.412a.567.567 0 00-.56-.55h-3.13V4.34c.348-.082.664-.265.91-.525A2.041 2.041 0 0012.925.93h.001a2.038 2.038 0 00-3.479 1.442 2.02 2.02 0 00.59 1.442c.253.244.561.425.898.525V6.41a.54.54 0 00.551.527h3.14v2.076h-8.83zM25.85 1.693a.962.962 0 111.362 1.36.962.962 0 01-1.362-1.36zm-7.803.343a.962.962 0 111.924 0 .962.962 0 01-1.924 0zm-7.522.337a.962.962 0 111.924 0 .962.962 0 01-1.924 0zm25.86 32.034a2.524 2.524 0 01-2.538 2.517H4.17a2.522 2.522 0 01-2.538-2.517v-1.79H14.26l.465.478a3.598 3.598 0 002.657 1.137h3.252a3.598 3.598 0 002.657-1.137l.465-.477h12.628v1.79zm-1.614-21.772v18.906H23.52a.522.522 0 00-.396.155l-.624.66a2.527 2.527 0 01-1.866.8h-3.252a2.535 2.535 0 01-1.866-.81l-.624-.654a.519.519 0 00-.396-.15H3.247V12.634a2.556 2.556 0 012.549-2.545h26.426a2.556 2.556 0 012.549 2.545z"/><path d="M32.849 12.781a.538.538 0 00-.539-.538H5.785a.538.538 0 00-.539.538v16.53a.54.54 0 00.539.539H32.31a.538.538 0 00.538-.538v-16.53zm-26.526.538h25.372V28.85H6.323V13.32z"/><path d="M25.282 19.768l-.98-.094a5.357 5.357 0 00-.47-1.112l.617-.746a.538.538 0 00-.032-.722l-1.272-1.285a.538.538 0 00-.726-.035l-.749.62a5.543 5.543 0 00-1.111-.468l-.095-.97a.535.535 0 00-.535-.483h-1.824a.535.535 0 00-.535.482l-.095.972a5.39 5.39 0 00-1.114.466l-.746-.619a.538.538 0 00-.724.034l-1.287 1.284a.538.538 0 00-.034.725l.62.747a5.547 5.547 0 00-.47 1.11l-.985.094a.544.544 0 00-.492.536v1.821c.003.278.216.51.492.536l.98.094c.115.387.273.76.471 1.112l-.617.745a.539.539 0 00.034.725l1.288 1.285c.197.196.51.21.724.033l.749-.62c.352.196.725.353 1.11.468l.096.956a.522.522 0 00.535.469h1.824a.523.523 0 00.535-.468l.095-.965a5.349 5.349 0 001.114-.463l.746.62a.538.538 0 00.723-.032l1.288-1.284a.538.538 0 00.034-.724l-.62-.747c.196-.352.353-.724.469-1.11l.97-.094a.543.543 0 00.492-.536v-1.821a.543.543 0 00-.493-.536zm-.583 1.869l-.858.083a.542.542 0 00-.476.42 4.505 4.505 0 01-.628 1.481.538.538 0 00.036.637l.55.664-.594.592-.665-.551a.538.538 0 00-.64-.035c-.45.298-.95.509-1.478.621a.518.518 0 00-.422.457l-.083.845h-.847l-.084-.845a.528.528 0 00-.424-.466 4.461 4.461 0 01-1.482-.62.539.539 0 00-.635.04l-.664.553-.593-.592.55-.663a.538.538 0 00.034-.642 4.3 4.3 0 01-.624-1.475.546.546 0 00-.48-.42l-.873-.085v-.843l.873-.084a.542.542 0 00.477-.419c.118-.527.331-1.03.628-1.482a.538.538 0 00-.036-.637l-.55-.663.594-.593.664.551a.538.538 0 00.64.035c.45-.298.951-.509 1.478-.621a.534.534 0 00.423-.47l.084-.86h.846l.084.859a.536.536 0 00.424.472c.527.117 1.03.328 1.482.625a.54.54 0 00.635-.04l.662-.549.582.588-.553.666a.538.538 0 00-.033.641c.298.449.51.95.623 1.476a.543.543 0 00.48.42l.873.085v.844z"/><path d="M19.01 17.418a3.797 3.797 0 103.802 3.796 3.803 3.803 0 00-3.801-3.796zm0 6.516a2.72 2.72 0 11.01-5.44 2.72 2.72 0 01-.01 5.44z"/></g><defs><clipPath id="clip0"><path fill="#fff" d="M0 0h38v38H0z"/></clipPath></defs></svg>