<svg width="29" height="29" fill="none" xmlns="http://www.w3.org/2000/svg"><path d="M15.104 16.917h9.667a.604.604 0 000-1.209h-9.667a.604.604 0 000 1.209z" fill="#fff"/><path d="M29 11.48V9.061c0-.583-.174-1.123-.462-1.586-.007-.015-.008-.032-.017-.045l-3.736-6.005A3.004 3.004 0 0022.22 0H6.781C5.73 0 4.771.534 4.216 1.426L.48 7.43c-.008.012-.008.026-.015.039A2.99 2.99 0 000 9.063v2.416a3.01 3.01 0 001.228 2.417A3.008 3.008 0 000 16.312v2.417a3.01 3.01 0 001.228 2.417A3.008 3.008 0 000 23.562v2.417A3.025 3.025 0 003.02 29h7.923a.604.604 0 100-1.208H3.02c-1 0-1.813-.814-1.813-1.813v-2.416c0-1.001.814-1.813 1.813-1.813h10.106a.604.604 0 000-1.208H3.021c-1 0-1.813-.814-1.813-1.813v-2.416c0-1.001.814-1.813 1.813-1.813h22.958c1 0 1.813.813 1.813 1.813v2.416c0 .266-.066.533-.191.79a.605.605 0 001.085.532c.209-.425.314-.869.314-1.322v-2.416a3.01 3.01 0 00-1.228-2.417A3.011 3.011 0 0029 11.479zM5.242 2.063a1.8 1.8 0 011.538-.856h15.439c.63 0 1.206.32 1.54.856l2.492 4.005c-.09-.01-.179-.027-.272-.027H3.021c-.093 0-.181.018-.272.026l2.493-4.004zm22.55 9.415c0 1-.814 1.813-1.813 1.813H3.021c-1 0-1.813-.813-1.813-1.813V9.063c0-1.001.814-1.813 1.813-1.813h22.958c1 0 1.813.812 1.813 1.813v2.416z" fill="#fff"/><path d="M2.417 24.77c0 1 .813 1.813 1.812 1.813 1 0 1.813-.813 1.813-1.812a1.814 1.814 0 00-3.625 0zm2.416 0a.604.604 0 11-1.208 0 .604.604 0 011.208 0zm19.937-4.228c-.11 0-.22.006-.327.015a5.43 5.43 0 00-4.506-2.432 5.445 5.445 0 00-5.41 4.889 3.024 3.024 0 00-2.444 2.965A3.025 3.025 0 0015.104 29h9.667A4.234 4.234 0 0029 24.77a4.234 4.234 0 00-4.23-4.228zm0 7.25h-9.666a1.814 1.814 0 010-3.625.604.604 0 00.604-.605 4.234 4.234 0 014.23-4.229 4.23 4.23 0 013.67 2.173.604.604 0 00.634.298 3.07 3.07 0 01.529-.054 3.025 3.025 0 013.02 3.02 3.025 3.025 0 01-3.02 3.022zm0-19.334h-9.666a.604.604 0 000 1.209h9.667a.604.604 0 000-1.209zm0 2.417h-9.666a.604.604 0 000 1.208h9.667a.604.604 0 000-1.208zM4.23 8.458a1.814 1.814 0 000 3.625c.998 0 1.812-.813 1.812-1.812 0-1-.814-1.813-1.813-1.813zm0 2.417a.604.604 0 110-1.209.604.604 0 010 1.209zM2.417 17.52c0 1 .813 1.813 1.812 1.813 1 0 1.813-.813 1.813-1.812a1.814 1.814 0 00-3.625 0zm2.416 0a.604.604 0 11-1.208 0 .604.604 0 011.208 0z" fill="#fff"/></svg>