<svg width="497" height="632" fill="none" xmlns="http://www.w3.org/2000/svg"><g clip-path="url(#clip0)"><path d="M102.29 0h-1.02v3.35h-3.35v1.02h3.35v3.35h1.02V4.37h3.35V3.35h-3.35V0zm48.97 0h-1.02v3.35h-3.35v1.02h3.35v3.35h1.02V4.37h3.35V3.35h-3.35V0zM347.1 0h-1.02v3.35h-3.35v1.02h3.35v3.35h1.02V4.37h3.35V3.35h-3.35V0zm97.93 0H444v3.35h-3.35v1.02H444v3.35h1.02V4.37h3.35V3.35h-3.35V0h.01zM200.22 0h-1.02v3.35h-3.35v1.02h3.35v3.35h1.02V4.37h3.35V3.35h-3.35V0zm48.96 0h-1.02v3.35h-3.35v1.02h3.35v3.35h1.02V4.37h3.35V3.35h-3.35V0zm146.89 0h-1.02v3.35h-3.35v1.02h3.35v3.35h1.02V4.37h3.35V3.35h-3.35V0zM53.33 0h-1.02v3.35h-3.35v1.02h3.35v3.35h1.02V4.37h3.35V3.35h-3.35V0zm244.81 0h-1.02v3.35h-3.35v1.02h3.35v3.35h1.02V4.37h3.35V3.35h-3.35V0zM4.37 0H3.35v3.35H0v1.02h3.35v3.35h1.02V4.37h3.35V3.35H4.37V0zm489.62 3.35V0h-1.02v3.35h-3.35v1.02h3.35v3.35h1.02V4.37h3.35V3.35h-3.35zM200.22 489.91h-1.02v3.35h-3.35v1.02h3.35v3.35h1.02v-3.35h3.35v-1.02h-3.35v-3.35zm-146.89 0h-1.02v3.35h-3.35v1.02h3.35v3.35h1.02v-3.35h3.35v-1.02h-3.35v-3.35zm244.81 0h-1.02v3.35h-3.35v1.02h3.35v3.35h1.02v-3.35h3.35v-1.02h-3.35v-3.35zm-293.77 0H3.35v3.35H0v1.02h3.35v3.35h1.02v-3.35h3.35v-1.02H4.37v-3.35zm440.66 0H444v3.35h-3.35v1.02H444v3.35h1.02v-3.35h3.35v-1.02h-3.35v-3.35h.01zm-293.77 0h-1.02v3.35h-3.35v1.02h3.35v3.35h1.02v-3.35h3.35v-1.02h-3.35v-3.35zm342.73 0h-1.02v3.35h-3.35v1.02h3.35v3.35h1.02v-3.35h3.35v-1.02h-3.35v-3.35zm-146.89 0h-1.02v3.35h-3.35v1.02h3.35v3.35h1.02v-3.35h3.35v-1.02h-3.35v-3.35zm-97.92 0h-1.02v3.35h-3.35v1.02h3.35v3.35h1.02v-3.35h3.35v-1.02h-3.35v-3.35zm146.89 0h-1.02v3.35h-3.35v1.02h3.35v3.35h1.02v-3.35h3.35v-1.02h-3.35v-3.35zm-293.78 0h-1.02v3.35h-3.35v1.02h3.35v3.35h1.02v-3.35h3.35v-1.02h-3.35v-3.35zm195.85-97.98h-1.02v3.35h-3.35v1.02h3.35v3.35h1.02v-3.35h3.35v-1.02h-3.35v-3.35zm97.93 0h-1.02v3.35h-3.35v1.02h3.35v3.35h1.02v-3.35h3.35v-1.02h-3.35v-3.35zm-146.89 0h-1.02v3.35h-3.35v1.02h3.35v3.35h1.02v-3.35h3.35v-1.02h-3.35v-3.35zm97.92 0h-1.02v3.35h-3.35v1.02h3.35v3.35h1.02v-3.35h3.35v-1.02h-3.35v-3.35zm-195.84 0h-1.02v3.35h-3.35v1.02h3.35v3.35h1.02v-3.35h3.35v-1.02h-3.35v-3.35zm-48.97 0h-1.02v3.35h-3.35v1.02h3.35v3.35h1.02v-3.35h3.35v-1.02h-3.35v-3.35zm-48.96 0h-1.02v3.35h-3.35v1.02h3.35v3.35h1.02v-3.35h3.35v-1.02h-3.35v-3.35zm146.89 0h-1.02v3.35h-3.35v1.02h3.35v3.35h1.02v-3.35h3.35v-1.02h-3.35v-3.35zm244.81 0H444v3.35h-3.35v1.02H444v3.35h1.02v-3.35h3.35v-1.02h-3.35v-3.35h.01zm48.96 0h-1.02v3.35h-3.35v1.02h3.35v3.35h1.02v-3.35h3.35v-1.02h-3.35v-3.35zm-489.62 0H3.35v3.35H0v1.02h3.35v3.35h1.02v-3.35h3.35v-1.02H4.37v-3.35zm48.96 48.99h-1.02v3.35h-3.35v1.02h3.35v3.35h1.02v-3.35h3.35v-1.02h-3.35v-3.35zm293.77 0h-1.02v3.35h-3.35v1.02h3.35v3.35h1.02v-3.35h3.35v-1.02h-3.35v-3.35zm-48.96 0h-1.02v3.35h-3.35v1.02h3.35v3.35h1.02v-3.35h3.35v-1.02h-3.35v-3.35zm-48.96 0h-1.02v3.35h-3.35v1.02h3.35v3.35h1.02v-3.35h3.35v-1.02h-3.35v-3.35zm-97.92 0h-1.02v3.35h-3.35v1.02h3.35v3.35h1.02v-3.35h3.35v-1.02h-3.35v-3.35zm-48.97 0h-1.02v3.35h-3.35v1.02h3.35v3.35h1.02v-3.35h3.35v-1.02h-3.35v-3.35zm97.93 0h-1.02v3.35h-3.35v1.02h3.35v3.35h1.02v-3.35h3.35v-1.02h-3.35v-3.35zm-195.85 0H3.35v3.35H0v1.02h3.35v3.35h1.02v-3.35h3.35v-1.02H4.37v-3.35zm391.7 0h-1.02v3.35h-3.35v1.02h3.35v3.35h1.02v-3.35h3.35v-1.02h-3.35v-3.35zm48.96 0H444v3.35h-3.35v1.02H444v3.35h1.02v-3.35h3.35v-1.02h-3.35v-3.35h.01zm48.96 0h-1.02v3.35h-3.35v1.02h3.35v3.35h1.02v-3.35h3.35v-1.02h-3.35v-3.35zM4.37 342.94H3.35v3.35H0v1.02h3.35v3.35h1.02v-3.35h3.35v-1.02H4.37v-3.35zm440.66 0H444v3.35h-3.35v1.02H444v3.35h1.02v-3.35h3.35v-1.02h-3.35v-3.35h.01zm-146.89 0h-1.02v3.35h-3.35v1.02h3.35v3.35h1.02v-3.35h3.35v-1.02h-3.35v-3.35zm48.96 0h-1.02v3.35h-3.35v1.02h3.35v3.35h1.02v-3.35h3.35v-1.02h-3.35v-3.35zm48.97 0h-1.02v3.35h-3.35v1.02h3.35v3.35h1.02v-3.35h3.35v-1.02h-3.35v-3.35zm-293.78 0h-1.02v3.35h-3.35v1.02h3.35v3.35h1.02v-3.35h3.35v-1.02h-3.35v-3.35zm48.97 0h-1.02v3.35h-3.35v1.02h3.35v3.35h1.02v-3.35h3.35v-1.02h-3.35v-3.35zm48.96 0h-1.02v3.35h-3.35v1.02h3.35v3.35h1.02v-3.35h3.35v-1.02h-3.35v-3.35zm-146.89 0h-1.02v3.35h-3.35v1.02h3.35v3.35h1.02v-3.35h3.35v-1.02h-3.35v-3.35zm195.85 0h-1.02v3.35h-3.35v1.02h3.35v3.35h1.02v-3.35h3.35v-1.02h-3.35v-3.35zm244.81 0h-1.02v3.35h-3.35v1.02h3.35v3.35h1.02v-3.35h3.35v-1.02h-3.35v-3.35zm-293.77-48.99h-1.02v3.35h-3.35v1.02h3.35v3.35h1.02v-3.35h3.35v-1.02h-3.35v-3.35zm244.81 0H444v3.35h-3.35v1.02H444v3.35h1.02v-3.35h3.35v-1.02h-3.35v-3.35h.01zm48.96 0h-1.02v3.35h-3.35v1.02h3.35v3.35h1.02v-3.35h3.35v-1.02h-3.35v-3.35zm-440.66 0h-1.02v3.35h-3.35v1.02h3.35v3.35h1.02v-3.35h3.35v-1.02h-3.35v-3.35zm97.93 0h-1.02v3.35h-3.35v1.02h3.35v3.35h1.02v-3.35h3.35v-1.02h-3.35v-3.35zm-48.97 0h-1.02v3.35h-3.35v1.02h3.35v3.35h1.02v-3.35h3.35v-1.02h-3.35v-3.35zm195.85 0h-1.02v3.35h-3.35v1.02h3.35v3.35h1.02v-3.35h3.35v-1.02h-3.35v-3.35zm-293.77 0H3.35v3.35H0v1.02h3.35v3.35h1.02v-3.35h3.35v-1.02H4.37v-3.35zm244.81 0h-1.02v3.35h-3.35v1.02h3.35v3.35h1.02v-3.35h3.35v-1.02h-3.35v-3.35zm146.89 0h-1.02v3.35h-3.35v1.02h3.35v3.35h1.02v-3.35h3.35v-1.02h-3.35v-3.35zm-48.97 0h-1.02v3.35h-3.35v1.02h3.35v3.35h1.02v-3.35h3.35v-1.02h-3.35v-3.35zm146.89-49h-1.02v3.35h-3.35v1.02h3.35v3.35h1.02v-3.35h3.35v-1.02h-3.35v-3.35zm-195.85 0h-1.02v3.35h-3.35v1.02h3.35v3.35h1.02v-3.35h3.35v-1.02h-3.35v-3.35zm146.89 0H444v3.35h-3.35v1.02H444v3.35h1.02v-3.35h3.35v-1.02h-3.35v-3.35h.01zm-48.96 0h-1.02v3.35h-3.35v1.02h3.35v3.35h1.02v-3.35h3.35v-1.02h-3.35v-3.35zm-244.81 0h-1.02v3.35h-3.35v1.02h3.35v3.35h1.02v-3.35h3.35v-1.02h-3.35v-3.35zm97.92 0h-1.02v3.35h-3.35v1.02h3.35v3.35h1.02v-3.35h3.35v-1.02h-3.35v-3.35zm-48.96 0h-1.02v3.35h-3.35v1.02h3.35v3.35h1.02v-3.35h3.35v-1.02h-3.35v-3.35zm146.88 0h-1.02v3.35h-3.35v1.02h3.35v3.35h1.02v-3.35h3.35v-1.02h-3.35v-3.35zm-244.81 0h-1.02v3.35h-3.35v1.02h3.35v3.35h1.02v-3.35h3.35v-1.02h-3.35v-3.35zm-48.96 0h-1.02v3.35h-3.35v1.02h3.35v3.35h1.02v-3.35h3.35v-1.02h-3.35v-3.35zm-48.96 0H3.35v3.35H0v1.02h3.35v3.35h1.02v-3.35h3.35v-1.02H4.37v-3.35zm293.77-48.99h-1.02v3.35h-3.35v1.02h3.35v3.35h1.02v-3.35h3.35v-1.02h-3.35v-3.35zm146.89 0H444v3.35h-3.35v1.02H444v3.35h1.02v-3.35h3.35v-1.02h-3.35v-3.35h.01zm-293.77 0h-1.02v3.35h-3.35v1.02h3.35v3.35h1.02v-3.35h3.35v-1.02h-3.35v-3.35zm-146.89 0H3.35v3.35H0v1.02h3.35v3.35h1.02v-3.35h3.35v-1.02H4.37v-3.35zm342.73 0h-1.02v3.35h-3.35v1.02h3.35v3.35h1.02v-3.35h3.35v-1.02h-3.35v-3.35zm146.89 0h-1.02v3.35h-3.35v1.02h3.35v3.35h1.02v-3.35h3.35v-1.02h-3.35v-3.35zm-244.81 0h-1.02v3.35h-3.35v1.02h3.35v3.35h1.02v-3.35h3.35v-1.02h-3.35v-3.35zm-48.96 0h-1.02v3.35h-3.35v1.02h3.35v3.35h1.02v-3.35h3.35v-1.02h-3.35v-3.35zm-146.89 0h-1.02v3.35h-3.35v1.02h3.35v3.35h1.02v-3.35h3.35v-1.02h-3.35v-3.35zm48.96 0h-1.02v3.35h-3.35v1.02h3.35v3.35h1.02v-3.35h3.35v-1.02h-3.35v-3.35zm293.78 0h-1.02v3.35h-3.35v1.02h3.35v3.35h1.02v-3.35h3.35v-1.02h-3.35v-3.35zm-48.97-48.99h-1.02v3.35h-3.35v1.02h3.35v3.35h1.02v-3.35h3.35v-1.02h-3.35v-3.35zm-48.96 0h-1.02v3.35h-3.35v1.02h3.35v3.35h1.02v-3.35h3.35v-1.02h-3.35v-3.35zm-244.81 0h-1.02v3.35h-3.35v1.02h3.35v3.35h1.02v-3.35h3.35v-1.02h-3.35v-3.35zm48.96 0h-1.02v3.35h-3.35v1.02h3.35v3.35h1.02v-3.35h3.35v-1.02h-3.35v-3.35zm146.89 0h-1.02v3.35h-3.35v1.02h3.35v3.35h1.02v-3.35h3.35v-1.02h-3.35v-3.35zm146.89 0h-1.02v3.35h-3.35v1.02h3.35v3.35h1.02v-3.35h3.35v-1.02h-3.35v-3.35zm97.92 0h-1.02v3.35h-3.35v1.02h3.35v3.35h1.02v-3.35h3.35v-1.02h-3.35v-3.35zm-293.77 0h-1.02v3.35h-3.35v1.02h3.35v3.35h1.02v-3.35h3.35v-1.02h-3.35v-3.35zm-195.85 0H3.35v3.35H0v1.02h3.35v3.35h1.02v-3.35h3.35v-1.02H4.37v-3.35zm440.66 0H444v3.35h-3.35v1.02H444v3.35h1.02v-3.35h3.35v-1.02h-3.35v-3.35h.01zm-293.77 0h-1.02v3.35h-3.35v1.02h3.35v3.35h1.02v-3.35h3.35v-1.02h-3.35v-3.35zm342.73-48.99h-1.02v3.35h-3.35v1.02h3.35v3.35h1.02v-3.35h3.35v-1.02h-3.35v-3.35zm-440.66 0h-1.02v3.35h-3.35v1.02h3.35v3.35h1.02v-3.35h3.35v-1.02h-3.35v-3.35zm97.93 0h-1.02v3.35h-3.35v1.02h3.35v3.35h1.02v-3.35h3.35v-1.02h-3.35v-3.35zm97.92 0h-1.02v3.35h-3.35v1.02h3.35v3.35h1.02v-3.35h3.35v-1.02h-3.35v-3.35zm-48.96 0h-1.02v3.35h-3.35v1.02h3.35v3.35h1.02v-3.35h3.35v-1.02h-3.35v-3.35zm195.85 0h-1.02v3.35h-3.35v1.02h3.35v3.35h1.02v-3.35h3.35v-1.02h-3.35v-3.35zm-97.93 0h-1.02v3.35h-3.35v1.02h3.35v3.35h1.02v-3.35h3.35v-1.02h-3.35v-3.35zm-293.77 0H3.35v3.35H0v1.02h3.35v3.35h1.02v-3.35h3.35v-1.02H4.37v-3.35zm440.66 0H444v3.35h-3.35v1.02H444v3.35h1.02v-3.35h3.35v-1.02h-3.35v-3.35h.01zm-97.93 0h-1.02v3.35h-3.35v1.02h3.35v3.35h1.02v-3.35h3.35v-1.02h-3.35v-3.35zm-244.81 0h-1.02v3.35h-3.35v1.02h3.35v3.35h1.02v-3.35h3.35v-1.02h-3.35v-3.35zM4.37 48.99H3.35v3.35H0v1.02h3.35v3.35h1.02v-3.35h3.35v-1.02H4.37v-3.35zm293.77 0h-1.02v3.35h-3.35v1.02h3.35v3.35h1.02v-3.35h3.35v-1.02h-3.35v-3.35zm146.89 0H444v3.35h-3.35v1.02H444v3.35h1.02v-3.35h3.35v-1.02h-3.35v-3.35h.01zm-48.96 0h-1.02v3.35h-3.35v1.02h3.35v3.35h1.02v-3.35h3.35v-1.02h-3.35v-3.35zm97.92 0h-1.02v3.35h-3.35v1.02h3.35v3.35h1.02v-3.35h3.35v-1.02h-3.35v-3.35zm-146.89 0h-1.02v3.35h-3.35v1.02h3.35v3.35h1.02v-3.35h3.35v-1.02h-3.35v-3.35zm-195.84 0h-1.02v3.35h-3.35v1.02h3.35v3.35h1.02v-3.35h3.35v-1.02h-3.35v-3.35zm-97.93 0h-1.02v3.35h-3.35v1.02h3.35v3.35h1.02v-3.35h3.35v-1.02h-3.35v-3.35zm48.96 0h-1.02v3.35h-3.35v1.02h3.35v3.35h1.02v-3.35h3.35v-1.02h-3.35v-3.35zm146.89 0h-1.02v3.35h-3.35v1.02h3.35v3.35h1.02v-3.35h3.35v-1.02h-3.35v-3.35zm-48.96 0h-1.02v3.35h-3.35v1.02h3.35v3.35h1.02v-3.35h3.35v-1.02h-3.35v-3.35z" fill="url(#paint0_linear)"/><path d="M102.29 343h-1.02v3.35h-3.35v1.02h3.35v3.35h1.02v-3.35h3.35v-1.02h-3.35V343zm48.97 0h-1.02v3.35h-3.35v1.02h3.35v3.35h1.02v-3.35h3.35v-1.02h-3.35V343zm195.84 0h-1.02v3.35h-3.35v1.02h3.35v3.35h1.02v-3.35h3.35v-1.02h-3.35V343zm97.93 0H444v3.35h-3.35v1.02H444v3.35h1.02v-3.35h3.35v-1.02h-3.35V343h.01zm-244.81 0h-1.02v3.35h-3.35v1.02h3.35v3.35h1.02v-3.35h3.35v-1.02h-3.35V343zm48.96 0h-1.02v3.35h-3.35v1.02h3.35v3.35h1.02v-3.35h3.35v-1.02h-3.35V343zm146.89 0h-1.02v3.35h-3.35v1.02h3.35v3.35h1.02v-3.35h3.35v-1.02h-3.35V343zm-342.74 0h-1.02v3.35h-3.35v1.02h3.35v3.35h1.02v-3.35h3.35v-1.02h-3.35V343zm244.81 0h-1.02v3.35h-3.35v1.02h3.35v3.35h1.02v-3.35h3.35v-1.02h-3.35V343zM4.37 343H3.35v3.35H0v1.02h3.35v3.35h1.02v-3.35h3.35v-1.02H4.37V343zm489.62 3.35V343h-1.02v3.35h-3.35v1.02h3.35v3.35h1.02v-3.35h3.35v-1.02h-3.35zM200.22 832.91h-1.02v3.35h-3.35v1.02h3.35v3.35h1.02v-3.35h3.35v-1.02h-3.35v-3.35zm-146.89 0h-1.02v3.35h-3.35v1.02h3.35v3.35h1.02v-3.35h3.35v-1.02h-3.35v-3.35zm244.81 0h-1.02v3.35h-3.35v1.02h3.35v3.35h1.02v-3.35h3.35v-1.02h-3.35v-3.35zm-293.77 0H3.35v3.35H0v1.02h3.35v3.35h1.02v-3.35h3.35v-1.02H4.37v-3.35zm440.66 0H444v3.35h-3.35v1.02H444v3.35h1.02v-3.35h3.35v-1.02h-3.35v-3.35h.01zm-293.77 0h-1.02v3.35h-3.35v1.02h3.35v3.35h1.02v-3.35h3.35v-1.02h-3.35v-3.35zm342.73 0h-1.02v3.35h-3.35v1.02h3.35v3.35h1.02v-3.35h3.35v-1.02h-3.35v-3.35zm-146.89 0h-1.02v3.35h-3.35v1.02h3.35v3.35h1.02v-3.35h3.35v-1.02h-3.35v-3.35zm-97.92 0h-1.02v3.35h-3.35v1.02h3.35v3.35h1.02v-3.35h3.35v-1.02h-3.35v-3.35zm146.89 0h-1.02v3.35h-3.35v1.02h3.35v3.35h1.02v-3.35h3.35v-1.02h-3.35v-3.35zm-293.78 0h-1.02v3.35h-3.35v1.02h3.35v3.35h1.02v-3.35h3.35v-1.02h-3.35v-3.35zm195.85-97.98h-1.02v3.35h-3.35v1.02h3.35v3.35h1.02v-3.35h3.35v-1.02h-3.35v-3.35zm97.93 0h-1.02v3.35h-3.35v1.02h3.35v3.35h1.02v-3.35h3.35v-1.02h-3.35v-3.35zm-146.89 0h-1.02v3.35h-3.35v1.02h3.35v3.35h1.02v-3.35h3.35v-1.02h-3.35v-3.35zm97.92 0h-1.02v3.35h-3.35v1.02h3.35v3.35h1.02v-3.35h3.35v-1.02h-3.35v-3.35zm-195.84 0h-1.02v3.35h-3.35v1.02h3.35v3.35h1.02v-3.35h3.35v-1.02h-3.35v-3.35zm-48.97 0h-1.02v3.35h-3.35v1.02h3.35v3.35h1.02v-3.35h3.35v-1.02h-3.35v-3.35zm-48.96 0h-1.02v3.35h-3.35v1.02h3.35v3.35h1.02v-3.35h3.35v-1.02h-3.35v-3.35zm146.89 0h-1.02v3.35h-3.35v1.02h3.35v3.35h1.02v-3.35h3.35v-1.02h-3.35v-3.35zm244.81 0H444v3.35h-3.35v1.02H444v3.35h1.02v-3.35h3.35v-1.02h-3.35v-3.35h.01zm48.96 0h-1.02v3.35h-3.35v1.02h3.35v3.35h1.02v-3.35h3.35v-1.02h-3.35v-3.35zm-489.62 0H3.35v3.35H0v1.02h3.35v3.35h1.02v-3.35h3.35v-1.02H4.37v-3.35zm48.96 48.99h-1.02v3.35h-3.35v1.02h3.35v3.35h1.02v-3.35h3.35v-1.02h-3.35v-3.35zm293.77 0h-1.02v3.35h-3.35v1.02h3.35v3.35h1.02v-3.35h3.35v-1.02h-3.35v-3.35zm-48.96 0h-1.02v3.35h-3.35v1.02h3.35v3.35h1.02v-3.35h3.35v-1.02h-3.35v-3.35zm-48.96 0h-1.02v3.35h-3.35v1.02h3.35v3.35h1.02v-3.35h3.35v-1.02h-3.35v-3.35zm-97.92 0h-1.02v3.35h-3.35v1.02h3.35v3.35h1.02v-3.35h3.35v-1.02h-3.35v-3.35zm-48.97 0h-1.02v3.35h-3.35v1.02h3.35v3.35h1.02v-3.35h3.35v-1.02h-3.35v-3.35zm97.93 0h-1.02v3.35h-3.35v1.02h3.35v3.35h1.02v-3.35h3.35v-1.02h-3.35v-3.35zm-195.85 0H3.35v3.35H0v1.02h3.35v3.35h1.02v-3.35h3.35v-1.02H4.37v-3.35zm391.7 0h-1.02v3.35h-3.35v1.02h3.35v3.35h1.02v-3.35h3.35v-1.02h-3.35v-3.35zm48.96 0H444v3.35h-3.35v1.02H444v3.35h1.02v-3.35h3.35v-1.02h-3.35v-3.35h.01zm48.96 0h-1.02v3.35h-3.35v1.02h3.35v3.35h1.02v-3.35h3.35v-1.02h-3.35v-3.35zM4.37 685.94H3.35v3.35H0v1.02h3.35v3.35h1.02v-3.35h3.35v-1.02H4.37v-3.35zm440.66 0H444v3.35h-3.35v1.02H444v3.35h1.02v-3.35h3.35v-1.02h-3.35v-3.35h.01zm-146.89 0h-1.02v3.35h-3.35v1.02h3.35v3.35h1.02v-3.35h3.35v-1.02h-3.35v-3.35zm48.96 0h-1.02v3.35h-3.35v1.02h3.35v3.35h1.02v-3.35h3.35v-1.02h-3.35v-3.35zm48.97 0h-1.02v3.35h-3.35v1.02h3.35v3.35h1.02v-3.35h3.35v-1.02h-3.35v-3.35zm-293.78 0h-1.02v3.35h-3.35v1.02h3.35v3.35h1.02v-3.35h3.35v-1.02h-3.35v-3.35zm48.97 0h-1.02v3.35h-3.35v1.02h3.35v3.35h1.02v-3.35h3.35v-1.02h-3.35v-3.35zm48.96 0h-1.02v3.35h-3.35v1.02h3.35v3.35h1.02v-3.35h3.35v-1.02h-3.35v-3.35zm-146.89 0h-1.02v3.35h-3.35v1.02h3.35v3.35h1.02v-3.35h3.35v-1.02h-3.35v-3.35zm195.85 0h-1.02v3.35h-3.35v1.02h3.35v3.35h1.02v-3.35h3.35v-1.02h-3.35v-3.35zm244.81 0h-1.02v3.35h-3.35v1.02h3.35v3.35h1.02v-3.35h3.35v-1.02h-3.35v-3.35zm-293.77-48.99h-1.02v3.35h-3.35v1.02h3.35v3.35h1.02v-3.35h3.35v-1.02h-3.35v-3.35zm244.81 0H444v3.35h-3.35v1.02H444v3.35h1.02v-3.35h3.35v-1.02h-3.35v-3.35h.01zm48.96 0h-1.02v3.35h-3.35v1.02h3.35v3.35h1.02v-3.35h3.35v-1.02h-3.35v-3.35zm-440.66 0h-1.02v3.35h-3.35v1.02h3.35v3.35h1.02v-3.35h3.35v-1.02h-3.35v-3.35zm97.93 0h-1.02v3.35h-3.35v1.02h3.35v3.35h1.02v-3.35h3.35v-1.02h-3.35v-3.35zm-48.97 0h-1.02v3.35h-3.35v1.02h3.35v3.35h1.02v-3.35h3.35v-1.02h-3.35v-3.35zm195.85 0h-1.02v3.35h-3.35v1.02h3.35v3.35h1.02v-3.35h3.35v-1.02h-3.35v-3.35zm-293.77 0H3.35v3.35H0v1.02h3.35v3.35h1.02v-3.35h3.35v-1.02H4.37v-3.35zm244.81 0h-1.02v3.35h-3.35v1.02h3.35v3.35h1.02v-3.35h3.35v-1.02h-3.35v-3.35zm146.89 0h-1.02v3.35h-3.35v1.02h3.35v3.35h1.02v-3.35h3.35v-1.02h-3.35v-3.35zm-48.97 0h-1.02v3.35h-3.35v1.02h3.35v3.35h1.02v-3.35h3.35v-1.02h-3.35v-3.35zm146.89-49h-1.02v3.35h-3.35v1.02h3.35v3.35h1.02v-3.35h3.35v-1.02h-3.35v-3.35zm-195.85 0h-1.02v3.35h-3.35v1.02h3.35v3.35h1.02v-3.35h3.35v-1.02h-3.35v-3.35zm146.89 0H444v3.35h-3.35v1.02H444v3.35h1.02v-3.35h3.35v-1.02h-3.35v-3.35h.01zm-48.96 0h-1.02v3.35h-3.35v1.02h3.35v3.35h1.02v-3.35h3.35v-1.02h-3.35v-3.35zm-244.81 0h-1.02v3.35h-3.35v1.02h3.35v3.35h1.02v-3.35h3.35v-1.02h-3.35v-3.35zm97.92 0h-1.02v3.35h-3.35v1.02h3.35v3.35h1.02v-3.35h3.35v-1.02h-3.35v-3.35zm-48.96 0h-1.02v3.35h-3.35v1.02h3.35v3.35h1.02v-3.35h3.35v-1.02h-3.35v-3.35zm146.88 0h-1.02v3.35h-3.35v1.02h3.35v3.35h1.02v-3.35h3.35v-1.02h-3.35v-3.35zm-244.81 0h-1.02v3.35h-3.35v1.02h3.35v3.35h1.02v-3.35h3.35v-1.02h-3.35v-3.35zm-48.96 0h-1.02v3.35h-3.35v1.02h3.35v3.35h1.02v-3.35h3.35v-1.02h-3.35v-3.35zm-48.96 0H3.35v3.35H0v1.02h3.35v3.35h1.02v-3.35h3.35v-1.02H4.37v-3.35zm293.77-48.99h-1.02v3.35h-3.35v1.02h3.35v3.35h1.02v-3.35h3.35v-1.02h-3.35v-3.35zm146.89 0H444v3.35h-3.35v1.02H444v3.35h1.02v-3.35h3.35v-1.02h-3.35v-3.35h.01zm-293.77 0h-1.02v3.35h-3.35v1.02h3.35v3.35h1.02v-3.35h3.35v-1.02h-3.35v-3.35zm-146.89 0H3.35v3.35H0v1.02h3.35v3.35h1.02v-3.35h3.35v-1.02H4.37v-3.35zm342.73 0h-1.02v3.35h-3.35v1.02h3.35v3.35h1.02v-3.35h3.35v-1.02h-3.35v-3.35zm146.89 0h-1.02v3.35h-3.35v1.02h3.35v3.35h1.02v-3.35h3.35v-1.02h-3.35v-3.35zm-244.81 0h-1.02v3.35h-3.35v1.02h3.35v3.35h1.02v-3.35h3.35v-1.02h-3.35v-3.35zm-48.96 0h-1.02v3.35h-3.35v1.02h3.35v3.35h1.02v-3.35h3.35v-1.02h-3.35v-3.35zm-146.89 0h-1.02v3.35h-3.35v1.02h3.35v3.35h1.02v-3.35h3.35v-1.02h-3.35v-3.35zm48.96 0h-1.02v3.35h-3.35v1.02h3.35v3.35h1.02v-3.35h3.35v-1.02h-3.35v-3.35zm293.78 0h-1.02v3.35h-3.35v1.02h3.35v3.35h1.02v-3.35h3.35v-1.02h-3.35v-3.35zm-48.97-48.99h-1.02v3.35h-3.35v1.02h3.35v3.35h1.02v-3.35h3.35v-1.02h-3.35v-3.35zm-48.96 0h-1.02v3.35h-3.35v1.02h3.35v3.35h1.02v-3.35h3.35v-1.02h-3.35v-3.35zm-244.81 0h-1.02v3.35h-3.35v1.02h3.35v3.35h1.02v-3.35h3.35v-1.02h-3.35v-3.35zm48.96 0h-1.02v3.35h-3.35v1.02h3.35v3.35h1.02v-3.35h3.35v-1.02h-3.35v-3.35zm146.89 0h-1.02v3.35h-3.35v1.02h3.35v3.35h1.02v-3.35h3.35v-1.02h-3.35v-3.35zm146.89 0h-1.02v3.35h-3.35v1.02h3.35v3.35h1.02v-3.35h3.35v-1.02h-3.35v-3.35zm97.92 0h-1.02v3.35h-3.35v1.02h3.35v3.35h1.02v-3.35h3.35v-1.02h-3.35v-3.35zm-293.77 0h-1.02v3.35h-3.35v1.02h3.35v3.35h1.02v-3.35h3.35v-1.02h-3.35v-3.35zm-195.85 0H3.35v3.35H0v1.02h3.35v3.35h1.02v-3.35h3.35v-1.02H4.37v-3.35zm440.66 0H444v3.35h-3.35v1.02H444v3.35h1.02v-3.35h3.35v-1.02h-3.35v-3.35h.01zm-293.77 0h-1.02v3.35h-3.35v1.02h3.35v3.35h1.02v-3.35h3.35v-1.02h-3.35v-3.35zm342.73-48.99h-1.02v3.35h-3.35v1.02h3.35v3.35h1.02v-3.35h3.35v-1.02h-3.35v-3.35zm-440.66 0h-1.02v3.35h-3.35v1.02h3.35v3.35h1.02v-3.35h3.35v-1.02h-3.35v-3.35zm97.93 0h-1.02v3.35h-3.35v1.02h3.35v3.35h1.02v-3.35h3.35v-1.02h-3.35v-3.35zm97.92 0h-1.02v3.35h-3.35v1.02h3.35v3.35h1.02v-3.35h3.35v-1.02h-3.35v-3.35zm-48.96 0h-1.02v3.35h-3.35v1.02h3.35v3.35h1.02v-3.35h3.35v-1.02h-3.35v-3.35zm195.85 0h-1.02v3.35h-3.35v1.02h3.35v3.35h1.02v-3.35h3.35v-1.02h-3.35v-3.35zm-97.93 0h-1.02v3.35h-3.35v1.02h3.35v3.35h1.02v-3.35h3.35v-1.02h-3.35v-3.35zm-293.77 0H3.35v3.35H0v1.02h3.35v3.35h1.02v-3.35h3.35v-1.02H4.37v-3.35zm440.66 0H444v3.35h-3.35v1.02H444v3.35h1.02v-3.35h3.35v-1.02h-3.35v-3.35h.01zm-97.93 0h-1.02v3.35h-3.35v1.02h3.35v3.35h1.02v-3.35h3.35v-1.02h-3.35v-3.35zm-244.81 0h-1.02v3.35h-3.35v1.02h3.35v3.35h1.02v-3.35h3.35v-1.02h-3.35v-3.35zM4.37 391.99H3.35v3.35H0v1.02h3.35v3.35h1.02v-3.35h3.35v-1.02H4.37v-3.35zm293.77 0h-1.02v3.35h-3.35v1.02h3.35v3.35h1.02v-3.35h3.35v-1.02h-3.35v-3.35zm146.89 0H444v3.35h-3.35v1.02H444v3.35h1.02v-3.35h3.35v-1.02h-3.35v-3.35h.01zm-48.96 0h-1.02v3.35h-3.35v1.02h3.35v3.35h1.02v-3.35h3.35v-1.02h-3.35v-3.35zm97.92 0h-1.02v3.35h-3.35v1.02h3.35v3.35h1.02v-3.35h3.35v-1.02h-3.35v-3.35zm-146.89 0h-1.02v3.35h-3.35v1.02h3.35v3.35h1.02v-3.35h3.35v-1.02h-3.35v-3.35zm-195.84 0h-1.02v3.35h-3.35v1.02h3.35v3.35h1.02v-3.35h3.35v-1.02h-3.35v-3.35zm-97.93 0h-1.02v3.35h-3.35v1.02h3.35v3.35h1.02v-3.35h3.35v-1.02h-3.35v-3.35zm48.96 0h-1.02v3.35h-3.35v1.02h3.35v3.35h1.02v-3.35h3.35v-1.02h-3.35v-3.35zm146.89 0h-1.02v3.35h-3.35v1.02h3.35v3.35h1.02v-3.35h3.35v-1.02h-3.35v-3.35zm-48.96 0h-1.02v3.35h-3.35v1.02h3.35v3.35h1.02v-3.35h3.35v-1.02h-3.35v-3.35z" fill="url(#paint1_linear)"/></g><defs><linearGradient id="paint0_linear" x1="422" y1="666" x2="125.5" y2="12.5" gradientUnits="userSpaceOnUse"><stop stop-color="#fff" stop-opacity=".7"/><stop offset="1" stop-color="#fff" stop-opacity=".2"/></linearGradient><linearGradient id="paint1_linear" x1="422" y1="666" x2="125.5" y2="12.5" gradientUnits="userSpaceOnUse"><stop stop-color="#fff" stop-opacity=".7"/><stop offset="1" stop-color="#fff" stop-opacity=".2"/></linearGradient><clipPath id="clip0"><path fill="#fff" d="M0 0h497v632H0z"/></clipPath></defs></svg>